<?xml version="1.0" encoding="UTF-8" standalone="no"?><!DOCTYPE svg PUBLIC "-//W3C//DTD SVG 1.1//EN" "http://www.w3.org/Graphics/SVG/1.1/DTD/svg11.dtd"><svg width="100%" height="100%" viewBox="0 0 16 16" version="1.1" xmlns="http://www.w3.org/2000/svg" xmlns:xlink="http://www.w3.org/1999/xlink" xml:space="preserve" style="fill-rule:evenodd;clip-rule:evenodd;stroke-linejoin:round;stroke-miterlimit:1.41421;"><path id="caret_primary_icon" d="M7.68,8.317l4.824,-4.824c0.653,-0.653 1.713,-0.653 2.366,0c0.653,0.653 0.653,1.714 0,2.367l-6.007,6.007c-0.092,0.092 -0.192,0.17 -0.297,0.236c0,0 -0.01,0.006 -0.01,0.006l-0.008,0.005c-0.259,0.158 -0.553,0.239 -0.847,0.242l-0.001,0c0,0 -0.013,0 -0.013,0l-0.007,0c0,0 -0.007,0 -0.007,0l-0.013,0c0,0 -0.001,0 -0.001,0c-0.294,-0.003 -0.588,-0.084 -0.847,-0.242c0,0 -0.008,-0.005 -0.008,-0.005l-0.01,-0.006c-0.105,-0.066 -0.205,-0.144 -0.297,-0.236l-6.007,-6.007c-0.653,-0.653 -0.653,-1.714 0,-2.367c0.653,-0.653 1.713,-0.653 2.366,0l4.824,4.824Z" style="fill:#607d8b;"/></svg>