<?xml version="1.0" encoding="UTF-8" standalone="no"?><!DOCTYPE svg PUBLIC "-//W3C//DTD SVG 1.1//EN" "http://www.w3.org/Graphics/SVG/1.1/DTD/svg11.dtd"><svg width="100%" height="100%" viewBox="0 0 16 16" version="1.1" xmlns="http://www.w3.org/2000/svg" xmlns:xlink="http://www.w3.org/1999/xlink" xml:space="preserve" style="fill-rule:evenodd;clip-rule:evenodd;stroke-linejoin:round;stroke-miterlimit:1.41421;"><g id="dining_primary_icon"><path id="Knife" d="M10.176,9.84l-1.431,0c-0.294,0 -0.533,-0.239 -0.533,-0.532l0,-6.411c0,-1.466 1.191,-2.657 2.658,-2.657l2.122,0c0.3,0 0.544,0.244 0.544,0.544l0,13.496c0,0.464 -0.376,0.84 -0.84,0.84l-1.68,0c-0.463,0 -0.84,-0.376 -0.84,-0.84l0,-4.44Z" style="fill:#40c4ff;"/><path id="Fork" d="M3.974,0.84c0,-0.331 0.241,-0.6 0.538,-0.6c0.297,0 0.538,0.269 0.538,0.6l0,3.615c0,0.331 0.24,0.6 0.537,0.6c0.297,0 0.538,-0.269 0.538,-0.6l0,-3.615c0,-0.331 0.241,-0.6 0.537,-0.6c0.297,0 0.538,0.269 0.538,0.6l0,5.26c0,0.702 -0.403,1.312 -0.992,1.616l0,6.564c0,0.464 -0.38,0.84 -0.848,0.84l-1.696,0c-0.469,0 -0.849,-0.376 -0.849,-0.84l0,-6.554c-0.588,-0.296 -0.991,-0.901 -0.991,-1.599l0,-5.287c0,-0.331 0.241,-0.6 0.537,-0.6c0.297,0 0.538,0.269 0.538,0.6l0,3.615c0,0.331 0.241,0.6 0.538,0.6c0.296,0 0.537,-0.269 0.537,-0.6l0,-3.615Z" style="fill:#40c4ff;"/></g></svg>