<?xml version="1.0" encoding="UTF-8" standalone="no"?><!DOCTYPE svg PUBLIC "-//W3C//DTD SVG 1.1//EN" "http://www.w3.org/Graphics/SVG/1.1/DTD/svg11.dtd"><svg width="100%" height="100%" viewBox="0 0 16 16" version="1.1" xmlns="http://www.w3.org/2000/svg" xmlns:xlink="http://www.w3.org/1999/xlink" xml:space="preserve" style="fill-rule:evenodd;clip-rule:evenodd;stroke-linejoin:round;stroke-miterlimit:1.41421;"><path id="goto_action_icon" d="M0.392,3.277c0,-0.612 0.497,-1.108 1.109,-1.108l7.261,0c0.046,0 0.092,0.002 0.137,0.008c0.052,-0.907 0.155,-1.597 0.309,-1.687c0.484,-0.283 5.76,2.815 5.76,3.36c0,0.544 -5.304,3.626 -5.76,3.36c-0.146,-0.086 -0.248,-0.779 -0.304,-1.691c-0.046,0.006 -0.094,0.01 -0.142,0.01l-5.01,0l0,9.024c0,0.185 -0.151,0.336 -0.336,0.336l-2.688,0c-0.186,0 -0.336,-0.151 -0.336,-0.336l0,-11.276Z" style="fill:#000;"/></svg>