<?xml version="1.0" encoding="UTF-8" standalone="no"?><!DOCTYPE svg PUBLIC "-//W3C//DTD SVG 1.1//EN" "http://www.w3.org/Graphics/SVG/1.1/DTD/svg11.dtd"><svg width="16px" height="16px" version="1.1" xmlns="http://www.w3.org/2000/svg" xmlns:xlink="http://www.w3.org/1999/xlink" xml:space="preserve" style="fill-rule:evenodd;clip-rule:evenodd;stroke-linejoin:round;stroke-miterlimit:1.41421;"><path id="settings_icon" d="M8.807,0.083c-0.747,-0.111 -1.507,-0.111 -2.254,0l-0.249,1.609c-0.667,0.153 -1.305,0.417 -1.886,0.781l-1.313,-0.962c-0.607,0.45 -1.144,0.987 -1.594,1.594l0.962,1.313c-0.364,0.581 -0.628,1.219 -0.781,1.886l-1.609,0.249c-0.111,0.747 -0.111,1.507 0,2.254l1.609,0.249c0.153,0.667 0.417,1.305 0.781,1.886l-0.962,1.313c0.45,0.607 0.987,1.144 1.594,1.594l1.313,-0.962c0.581,0.364 1.219,0.628 1.886,0.781l0.249,1.609c0.747,0.111 1.507,0.111 2.254,0l0.249,-1.609c0.667,-0.153 1.305,-0.417 1.886,-0.781l1.313,0.962c0.607,-0.45 1.144,-0.987 1.594,-1.594l-0.962,-1.313c0.364,-0.581 0.628,-1.219 0.781,-1.886l1.609,-0.249c0.111,-0.747 0.111,-1.507 0,-2.254l-1.609,-0.249c-0.153,-0.667 -0.417,-1.305 -0.781,-1.886l0.962,-1.313c-0.45,-0.607 -0.987,-1.144 -1.594,-1.594l-1.313,0.962c-0.581,-0.364 -1.219,-0.628 -1.886,-0.781l-0.249,-1.609ZM7.68,4.685c1.653,0 2.995,1.342 2.995,2.995c0,1.653 -1.342,2.995 -2.995,2.995c-1.653,0 -2.995,-1.342 -2.995,-2.995c0,-1.653 1.342,-2.995 2.995,-2.995Z" style="fill:#cfd8dc;"/></svg>